<svg width="214" height="79" viewBox="0 0 214 79" fill="none" xmlns="http://www.w3.org/2000/svg">
<path d="M19.3323 68H18.2823C18.161 68 18.063 67.9697 17.9883 67.909C17.9137 67.8483 17.8577 67.7713 17.8203 67.678L16.8823 65.256H12.3813L11.4433 67.678C11.4107 67.762 11.3547 67.8367 11.2753 67.902C11.196 67.9673 11.098 68 10.9813 68H9.93133L13.9423 57.969H15.3213L19.3323 68ZM12.7593 64.276H16.5043L14.9293 60.195C14.8267 59.943 14.7263 59.628 14.6283 59.25C14.577 59.4413 14.5257 59.6187 14.4743 59.782C14.4277 59.9407 14.381 60.0807 14.3343 60.202L12.7593 64.276ZM20.399 68V60.909H21.113C21.2483 60.909 21.3416 60.9347 21.393 60.986C21.4443 61.0373 21.4793 61.126 21.498 61.252L21.582 62.358C21.8246 61.8633 22.1233 61.4783 22.478 61.203C22.8373 60.923 23.2573 60.783 23.738 60.783C23.934 60.783 24.1113 60.8063 24.27 60.853C24.4286 60.895 24.5756 60.9557 24.711 61.035L24.55 61.966C24.5173 62.0827 24.445 62.141 24.333 62.141C24.2676 62.141 24.1673 62.12 24.032 62.078C23.8966 62.0313 23.7076 62.008 23.465 62.008C23.031 62.008 22.667 62.134 22.373 62.386C22.0836 62.638 21.841 63.0043 21.645 63.485V68H20.399ZM26.0454 68V60.909H26.7594C26.8948 60.909 26.9881 60.9347 27.0394 60.986C27.0908 61.0373 27.1258 61.126 27.1444 61.252L27.2284 62.358C27.4711 61.8633 27.7698 61.4783 28.1244 61.203C28.4838 60.923 28.9038 60.783 29.3844 60.783C29.5804 60.783 29.7578 60.8063 29.9164 60.853C30.0751 60.895 30.2221 60.9557 30.3574 61.035L30.1964 61.966C30.1638 62.0827 30.0914 62.141 29.9794 62.141C29.9141 62.141 29.8138 62.12 29.6784 62.078C29.5431 62.0313 29.3541 62.008 29.1114 62.008C28.6774 62.008 28.3134 62.134 28.0194 62.386C27.7301 62.638 27.4874 63.0043 27.2914 63.485V68H26.0454ZM36.6402 68H36.0872C35.9658 68 35.8678 67.9813 35.7932 67.944C35.7185 67.9067 35.6695 67.8273 35.6462 67.706L35.5062 67.048C35.3195 67.216 35.1375 67.3677 34.9602 67.503C34.7828 67.6337 34.5962 67.7457 34.4002 67.839C34.2042 67.9277 33.9942 67.9953 33.7702 68.042C33.5508 68.0887 33.3058 68.112 33.0352 68.112C32.7598 68.112 32.5008 68.0747 32.2582 68C32.0202 67.9207 31.8125 67.804 31.6352 67.65C31.4578 67.496 31.3155 67.3023 31.2082 67.069C31.1055 66.831 31.0542 66.551 31.0542 66.229C31.0542 65.949 31.1312 65.6807 31.2852 65.424C31.4392 65.1627 31.6865 64.9317 32.0272 64.731C32.3725 64.5303 32.8228 64.367 33.3782 64.241C33.9335 64.1103 34.6125 64.0357 35.4152 64.017V63.464C35.4152 62.9133 35.2962 62.498 35.0582 62.218C34.8248 61.9333 34.4772 61.791 34.0152 61.791C33.7118 61.791 33.4552 61.8307 33.2452 61.91C33.0398 61.9847 32.8602 62.071 32.7062 62.169C32.5568 62.2623 32.4262 62.3487 32.3142 62.428C32.2068 62.5027 32.0995 62.54 31.9922 62.54C31.9082 62.54 31.8335 62.519 31.7682 62.477C31.7075 62.4303 31.6585 62.3743 31.6212 62.309L31.3972 61.91C31.7892 61.532 32.2115 61.2497 32.6642 61.063C33.1168 60.8763 33.6185 60.783 34.1692 60.783C34.5658 60.783 34.9182 60.8483 35.2262 60.979C35.5342 61.1097 35.7932 61.2917 36.0032 61.525C36.2132 61.7583 36.3718 62.0407 36.4792 62.372C36.5865 62.7033 36.6402 63.0673 36.6402 63.464V68ZM33.4062 67.237C33.6255 67.237 33.8262 67.216 34.0082 67.174C34.1902 67.1273 34.3605 67.0643 34.5192 66.985C34.6825 66.901 34.8365 66.8007 34.9812 66.684C35.1305 66.5673 35.2752 66.4343 35.4152 66.285V64.808C34.8412 64.8267 34.3535 64.8733 33.9522 64.948C33.5508 65.018 33.2242 65.1113 32.9722 65.228C32.7202 65.3447 32.5358 65.4823 32.4192 65.641C32.3072 65.7997 32.2512 65.977 32.2512 66.173C32.2512 66.3597 32.2815 66.5207 32.3422 66.656C32.4028 66.7913 32.4845 66.9033 32.5872 66.992C32.6898 67.076 32.8112 67.139 32.9512 67.181C33.0912 67.2183 33.2428 67.237 33.4062 67.237ZM42.5879 62.078C42.5319 62.1807 42.4455 62.232 42.3289 62.232C42.2589 62.232 42.1795 62.2063 42.0909 62.155C42.0022 62.1037 41.8925 62.0477 41.7619 61.987C41.6359 61.9217 41.4842 61.8633 41.3069 61.812C41.1295 61.756 40.9195 61.728 40.6769 61.728C40.4669 61.728 40.2779 61.756 40.1099 61.812C39.9419 61.8633 39.7972 61.9357 39.6759 62.029C39.5592 62.1223 39.4682 62.232 39.4029 62.358C39.3422 62.4793 39.3119 62.6123 39.3119 62.757C39.3119 62.939 39.3632 63.0907 39.4659 63.212C39.5732 63.3333 39.7132 63.4383 39.8859 63.527C40.0585 63.6157 40.2545 63.695 40.4739 63.765C40.6932 63.8303 40.9172 63.9027 41.1459 63.982C41.3792 64.0567 41.6055 64.1407 41.8249 64.234C42.0442 64.3273 42.2402 64.444 42.4129 64.584C42.5855 64.724 42.7232 64.8967 42.8259 65.102C42.9332 65.3027 42.9869 65.5453 42.9869 65.83C42.9869 66.1567 42.9285 66.46 42.8119 66.74C42.6952 67.0153 42.5225 67.2557 42.2939 67.461C42.0652 67.6617 41.7852 67.8203 41.4539 67.937C41.1225 68.0537 40.7399 68.112 40.3059 68.112C39.8112 68.112 39.3632 68.0327 38.9619 67.874C38.5605 67.7107 38.2199 67.503 37.9399 67.251L38.2339 66.775C38.2712 66.7143 38.3155 66.6677 38.3669 66.635C38.4182 66.6023 38.4859 66.586 38.5699 66.586C38.6539 66.586 38.7425 66.6187 38.8359 66.684C38.9292 66.7493 39.0412 66.8217 39.1719 66.901C39.3072 66.9803 39.4682 67.0527 39.6549 67.118C39.8462 67.1833 40.0842 67.216 40.3689 67.216C40.6115 67.216 40.8239 67.1857 41.0059 67.125C41.1879 67.0597 41.3395 66.9733 41.4609 66.866C41.5822 66.7587 41.6709 66.635 41.7269 66.495C41.7875 66.355 41.8179 66.2057 41.8179 66.047C41.8179 65.851 41.7642 65.69 41.6569 65.564C41.5542 65.4333 41.4165 65.3237 41.2439 65.235C41.0712 65.1417 40.8729 65.0623 40.6489 64.997C40.4295 64.927 40.2032 64.8547 39.9699 64.78C39.7412 64.7053 39.5149 64.6213 39.2909 64.528C39.0715 64.43 38.8755 64.3087 38.7029 64.164C38.5302 64.0193 38.3902 63.842 38.2829 63.632C38.1802 63.4173 38.1289 63.1583 38.1289 62.855C38.1289 62.5843 38.1849 62.3253 38.2969 62.078C38.4089 61.826 38.5722 61.6067 38.7869 61.42C39.0015 61.2287 39.2652 61.077 39.5779 60.965C39.8905 60.853 40.2475 60.797 40.6489 60.797C41.1155 60.797 41.5332 60.8717 41.9019 61.021C42.2752 61.1657 42.5972 61.3663 42.8679 61.623L42.5879 62.078ZM46.7472 68.112C46.1872 68.112 45.7555 67.9557 45.4522 67.643C45.1535 67.3303 45.0042 66.88 45.0042 66.292V61.952H44.1502C44.0755 61.952 44.0125 61.931 43.9612 61.889C43.9098 61.8423 43.8842 61.7723 43.8842 61.679V61.182L45.0462 61.035L45.3332 58.844C45.3425 58.774 45.3728 58.718 45.4242 58.676C45.4755 58.6293 45.5408 58.606 45.6202 58.606H46.2502V61.049H48.2802V61.952H46.2502V66.208C46.2502 66.5067 46.3225 66.7283 46.4672 66.873C46.6118 67.0177 46.7985 67.09 47.0272 67.09C47.1578 67.09 47.2698 67.0737 47.3632 67.041C47.4612 67.0037 47.5452 66.964 47.6152 66.922C47.6852 66.88 47.7435 66.8427 47.7902 66.81C47.8415 66.7727 47.8858 66.754 47.9232 66.754C47.9885 66.754 48.0468 66.7937 48.0982 66.873L48.4622 67.468C48.2475 67.6687 47.9885 67.8273 47.6852 67.944C47.3818 68.056 47.0692 68.112 46.7472 68.112ZM49.8208 68V60.909H50.5348C50.6702 60.909 50.7635 60.9347 50.8148 60.986C50.8662 61.0373 50.9012 61.126 50.9198 61.252L51.0038 62.358C51.2465 61.8633 51.5452 61.4783 51.8998 61.203C52.2592 60.923 52.6792 60.783 53.1598 60.783C53.3558 60.783 53.5332 60.8063 53.6918 60.853C53.8505 60.895 53.9975 60.9557 54.1328 61.035L53.9718 61.966C53.9392 62.0827 53.8668 62.141 53.7548 62.141C53.6895 62.141 53.5892 62.12 53.4538 62.078C53.3185 62.0313 53.1295 62.008 52.8868 62.008C52.4528 62.008 52.0888 62.134 51.7948 62.386C51.5055 62.638 51.2628 63.0043 51.0668 63.485V68H49.8208ZM60.4155 68H59.8625C59.7412 68 59.6432 67.9813 59.5685 67.944C59.4939 67.9067 59.4449 67.8273 59.4215 67.706L59.2815 67.048C59.0949 67.216 58.9129 67.3677 58.7355 67.503C58.5582 67.6337 58.3715 67.7457 58.1755 67.839C57.9795 67.9277 57.7695 67.9953 57.5455 68.042C57.3262 68.0887 57.0812 68.112 56.8105 68.112C56.5352 68.112 56.2762 68.0747 56.0335 68C55.7955 67.9207 55.5879 67.804 55.4105 67.65C55.2332 67.496 55.0909 67.3023 54.9835 67.069C54.8809 66.831 54.8295 66.551 54.8295 66.229C54.8295 65.949 54.9065 65.6807 55.0605 65.424C55.2145 65.1627 55.4619 64.9317 55.8025 64.731C56.1479 64.5303 56.5982 64.367 57.1535 64.241C57.7089 64.1103 58.3879 64.0357 59.1905 64.017V63.464C59.1905 62.9133 59.0715 62.498 58.8335 62.218C58.6002 61.9333 58.2525 61.791 57.7905 61.791C57.4872 61.791 57.2305 61.8307 57.0205 61.91C56.8152 61.9847 56.6355 62.071 56.4815 62.169C56.3322 62.2623 56.2015 62.3487 56.0895 62.428C55.9822 62.5027 55.8749 62.54 55.7675 62.54C55.6835 62.54 55.6089 62.519 55.5435 62.477C55.4829 62.4303 55.4339 62.3743 55.3965 62.309L55.1725 61.91C55.5645 61.532 55.9869 61.2497 56.4395 61.063C56.8922 60.8763 57.3939 60.783 57.9445 60.783C58.3412 60.783 58.6935 60.8483 59.0015 60.979C59.3095 61.1097 59.5685 61.2917 59.7785 61.525C59.9885 61.7583 60.1472 62.0407 60.2545 62.372C60.3619 62.7033 60.4155 63.0673 60.4155 63.464V68ZM57.1815 67.237C57.4009 67.237 57.6015 67.216 57.7835 67.174C57.9655 67.1273 58.1359 67.0643 58.2945 66.985C58.4579 66.901 58.6119 66.8007 58.7565 66.684C58.9059 66.5673 59.0505 66.4343 59.1905 66.285V64.808C58.6165 64.8267 58.1289 64.8733 57.7275 64.948C57.3262 65.018 56.9995 65.1113 56.7475 65.228C56.4955 65.3447 56.3112 65.4823 56.1945 65.641C56.0825 65.7997 56.0265 65.977 56.0265 66.173C56.0265 66.3597 56.0569 66.5207 56.1175 66.656C56.1782 66.7913 56.2599 66.9033 56.3625 66.992C56.4652 67.076 56.5865 67.139 56.7265 67.181C56.8665 67.2183 57.0182 67.237 57.1815 67.237ZM70.2183 68H69.6653C69.5439 68 69.4459 67.9813 69.3713 67.944C69.2966 67.9067 69.2476 67.8273 69.2243 67.706L69.0843 67.048C68.8976 67.216 68.7156 67.3677 68.5383 67.503C68.3609 67.6337 68.1743 67.7457 67.9783 67.839C67.7823 67.9277 67.5723 67.9953 67.3483 68.042C67.1289 68.0887 66.8839 68.112 66.6133 68.112C66.3379 68.112 66.0789 68.0747 65.8363 68C65.5983 67.9207 65.3906 67.804 65.2133 67.65C65.0359 67.496 64.8936 67.3023 64.7863 67.069C64.6836 66.831 64.6323 66.551 64.6323 66.229C64.6323 65.949 64.7093 65.6807 64.8633 65.424C65.0173 65.1627 65.2646 64.9317 65.6053 64.731C65.9506 64.5303 66.4009 64.367 66.9563 64.241C67.5116 64.1103 68.1906 64.0357 68.9933 64.017V63.464C68.9933 62.9133 68.8743 62.498 68.6363 62.218C68.4029 61.9333 68.0553 61.791 67.5933 61.791C67.2899 61.791 67.0333 61.8307 66.8233 61.91C66.6179 61.9847 66.4383 62.071 66.2843 62.169C66.1349 62.2623 66.0043 62.3487 65.8923 62.428C65.7849 62.5027 65.6776 62.54 65.5703 62.54C65.4863 62.54 65.4116 62.519 65.3463 62.477C65.2856 62.4303 65.2366 62.3743 65.1993 62.309L64.9753 61.91C65.3673 61.532 65.7896 61.2497 66.2423 61.063C66.6949 60.8763 67.1966 60.783 67.7473 60.783C68.1439 60.783 68.4963 60.8483 68.8043 60.979C69.1123 61.1097 69.3713 61.2917 69.5813 61.525C69.7913 61.7583 69.9499 62.0407 70.0573 62.372C70.1646 62.7033 70.2183 63.0673 70.2183 63.464V68ZM66.9843 67.237C67.2036 67.237 67.4043 67.216 67.5863 67.174C67.7683 67.1273 67.9386 67.0643 68.0973 66.985C68.2606 66.901 68.4146 66.8007 68.5593 66.684C68.7086 66.5673 68.8533 66.4343 68.9933 66.285V64.808C68.4193 64.8267 67.9316 64.8733 67.5303 64.948C67.1289 65.018 66.8023 65.1113 66.5503 65.228C66.2983 65.3447 66.1139 65.4823 65.9973 65.641C65.8853 65.7997 65.8293 65.977 65.8293 66.173C65.8293 66.3597 65.8596 66.5207 65.9203 66.656C65.9809 66.7913 66.0626 66.9033 66.1653 66.992C66.2679 67.076 66.3893 67.139 66.5293 67.181C66.6693 67.2183 66.8209 67.237 66.9843 67.237ZM72.106 68V60.909H72.82C72.9553 60.909 73.0487 60.9347 73.1 60.986C73.1513 61.0373 73.1863 61.126 73.205 61.252L73.289 62.358C73.5317 61.8633 73.8303 61.4783 74.185 61.203C74.5443 60.923 74.9643 60.783 75.445 60.783C75.641 60.783 75.8183 60.8063 75.977 60.853C76.1357 60.895 76.2827 60.9557 76.418 61.035L76.257 61.966C76.2243 62.0827 76.152 62.141 76.04 62.141C75.9747 62.141 75.8743 62.12 75.739 62.078C75.6037 62.0313 75.4147 62.008 75.172 62.008C74.738 62.008 74.374 62.134 74.08 62.386C73.7907 62.638 73.548 63.0043 73.352 63.485V68H72.106ZM82.5895 62.169C82.5521 62.2203 82.5148 62.26 82.4775 62.288C82.4401 62.316 82.3865 62.33 82.3165 62.33C82.2465 62.33 82.1695 62.302 82.0855 62.246C82.0061 62.1853 81.9035 62.12 81.7775 62.05C81.6515 61.98 81.4975 61.917 81.3155 61.861C81.1381 61.8003 80.9188 61.77 80.6575 61.77C80.3121 61.77 80.0065 61.833 79.7405 61.959C79.4745 62.0803 79.2505 62.2577 79.0685 62.491C78.8911 62.7243 78.7558 63.0067 78.6625 63.338C78.5738 63.6693 78.5295 64.0403 78.5295 64.451C78.5295 64.8803 78.5785 65.263 78.6765 65.599C78.7745 65.9303 78.9121 66.2103 79.0895 66.439C79.2668 66.663 79.4815 66.8357 79.7335 66.957C79.9901 67.0737 80.2771 67.132 80.5945 67.132C80.8978 67.132 81.1475 67.097 81.3435 67.027C81.5395 66.9523 81.7028 66.8707 81.8335 66.782C81.9641 66.6933 82.0715 66.614 82.1555 66.544C82.2395 66.4693 82.3235 66.432 82.4075 66.432C82.5148 66.432 82.5941 66.4717 82.6455 66.551L82.9955 67.006C82.6875 67.384 82.3025 67.6617 81.8405 67.839C81.3785 68.0117 80.8908 68.098 80.3775 68.098C79.9341 68.098 79.5211 68.0163 79.1385 67.853C78.7605 67.6897 78.4315 67.454 78.1515 67.146C77.8715 66.8333 77.6498 66.4507 77.4865 65.998C77.3278 65.5453 77.2485 65.0297 77.2485 64.451C77.2485 63.9237 77.3208 63.436 77.4655 62.988C77.6148 62.54 77.8295 62.155 78.1095 61.833C78.3941 61.5063 78.7441 61.252 79.1595 61.07C79.5748 60.888 80.0508 60.797 80.5875 60.797C81.0821 60.797 81.5208 60.8787 81.9035 61.042C82.2861 61.2007 82.6245 61.427 82.9185 61.721L82.5895 62.169ZM84.2876 68V57.689H85.5336V61.861C85.837 61.539 86.173 61.2823 86.5416 61.091C86.9103 60.895 87.335 60.797 87.8156 60.797C88.203 60.797 88.5436 60.8623 88.8376 60.993C89.1363 61.119 89.3836 61.301 89.5796 61.539C89.7803 61.7723 89.932 62.0547 90.0346 62.386C90.1373 62.7173 90.1886 63.0837 90.1886 63.485V68H88.9426V63.485C88.9426 62.9483 88.819 62.533 88.5716 62.239C88.329 61.9403 87.9556 61.791 87.4516 61.791C87.083 61.791 86.7376 61.8797 86.4156 62.057C86.0983 62.2343 85.8043 62.4747 85.5336 62.778V68H84.2876ZM93.4529 60.909V68H92.2069V60.909H93.4529ZM93.7329 58.683C93.7329 58.8043 93.7073 58.9187 93.6559 59.026C93.6093 59.1287 93.5439 59.222 93.4599 59.306C93.3806 59.3853 93.2873 59.4483 93.1799 59.495C93.0726 59.5417 92.9583 59.565 92.8369 59.565C92.7156 59.565 92.6013 59.5417 92.4939 59.495C92.3913 59.4483 92.2979 59.3853 92.2139 59.306C92.1346 59.222 92.0716 59.1287 92.0249 59.026C91.9783 58.9187 91.9549 58.8043 91.9549 58.683C91.9549 58.5617 91.9783 58.4473 92.0249 58.34C92.0716 58.228 92.1346 58.1323 92.2139 58.053C92.2979 57.969 92.3913 57.9037 92.4939 57.857C92.6013 57.8103 92.7156 57.787 92.8369 57.787C92.9583 57.787 93.0726 57.8103 93.1799 57.857C93.2873 57.9037 93.3806 57.969 93.4599 58.053C93.5439 58.1323 93.6093 58.228 93.6559 58.34C93.7073 58.4473 93.7329 58.5617 93.7329 58.683ZM94.753 60.909H95.775C95.873 60.909 95.9546 60.9347 96.02 60.986C96.0853 61.0373 96.132 61.098 96.16 61.168L97.959 65.732C98.0243 65.9 98.0756 66.068 98.113 66.236C98.1503 66.404 98.1853 66.5697 98.218 66.733C98.2553 66.5697 98.295 66.404 98.337 66.236C98.379 66.068 98.4326 65.9 98.498 65.732L100.318 61.168C100.346 61.0933 100.39 61.0327 100.451 60.986C100.516 60.9347 100.596 60.909 100.689 60.909H101.662L98.771 68H97.644L94.753 60.909ZM105.505 60.797C106.023 60.797 106.49 60.8833 106.905 61.056C107.325 61.2287 107.68 61.4737 107.969 61.791C108.263 62.1083 108.487 62.4933 108.641 62.946C108.8 63.394 108.879 63.8957 108.879 64.451C108.879 65.011 108.8 65.515 108.641 65.963C108.487 66.411 108.263 66.7937 107.969 67.111C107.68 67.4283 107.325 67.6733 106.905 67.846C106.49 68.014 106.023 68.098 105.505 68.098C104.987 68.098 104.518 68.014 104.098 67.846C103.683 67.6733 103.328 67.4283 103.034 67.111C102.74 66.7937 102.514 66.411 102.355 65.963C102.197 65.515 102.117 65.011 102.117 64.451C102.117 63.8957 102.197 63.394 102.355 62.946C102.514 62.4933 102.74 62.1083 103.034 61.791C103.328 61.4737 103.683 61.2287 104.098 61.056C104.518 60.8833 104.987 60.797 105.505 60.797ZM105.505 67.125C106.205 67.125 106.728 66.8917 107.073 66.425C107.419 65.9537 107.591 65.298 107.591 64.458C107.591 63.6133 107.419 62.9553 107.073 62.484C106.728 62.0127 106.205 61.777 105.505 61.777C105.151 61.777 104.843 61.8377 104.581 61.959C104.32 62.0803 104.101 62.2553 103.923 62.484C103.751 62.7127 103.62 62.995 103.531 63.331C103.447 63.6623 103.405 64.038 103.405 64.458C103.405 64.878 103.447 65.2537 103.531 65.585C103.62 65.9163 103.751 66.1963 103.923 66.425C104.101 66.649 104.32 66.8217 104.581 66.943C104.843 67.0643 105.151 67.125 105.505 67.125ZM114.475 62.078C114.419 62.1807 114.332 62.232 114.216 62.232C114.146 62.232 114.066 62.2063 113.978 62.155C113.889 62.1037 113.779 62.0477 113.649 61.987C113.523 61.9217 113.371 61.8633 113.194 61.812C113.016 61.756 112.806 61.728 112.564 61.728C112.354 61.728 112.165 61.756 111.997 61.812C111.829 61.8633 111.684 61.9357 111.563 62.029C111.446 62.1223 111.355 62.232 111.29 62.358C111.229 62.4793 111.199 62.6123 111.199 62.757C111.199 62.939 111.25 63.0907 111.353 63.212C111.46 63.3333 111.6 63.4383 111.773 63.527C111.945 63.6157 112.141 63.695 112.361 63.765C112.58 63.8303 112.804 63.9027 113.033 63.982C113.266 64.0567 113.492 64.1407 113.712 64.234C113.931 64.3273 114.127 64.444 114.3 64.584C114.472 64.724 114.61 64.8967 114.713 65.102C114.82 65.3027 114.874 65.5453 114.874 65.83C114.874 66.1567 114.815 66.46 114.699 66.74C114.582 67.0153 114.409 67.2557 114.181 67.461C113.952 67.6617 113.672 67.8203 113.341 67.937C113.009 68.0537 112.627 68.112 112.193 68.112C111.698 68.112 111.25 68.0327 110.849 67.874C110.447 67.7107 110.107 67.503 109.827 67.251L110.121 66.775C110.158 66.7143 110.202 66.6677 110.254 66.635C110.305 66.6023 110.373 66.586 110.457 66.586C110.541 66.586 110.629 66.6187 110.723 66.684C110.816 66.7493 110.928 66.8217 111.059 66.901C111.194 66.9803 111.355 67.0527 111.542 67.118C111.733 67.1833 111.971 67.216 112.256 67.216C112.498 67.216 112.711 67.1857 112.893 67.125C113.075 67.0597 113.226 66.9733 113.348 66.866C113.469 66.7587 113.558 66.635 113.614 66.495C113.674 66.355 113.705 66.2057 113.705 66.047C113.705 65.851 113.651 65.69 113.544 65.564C113.441 65.4333 113.303 65.3237 113.131 65.235C112.958 65.1417 112.76 65.0623 112.536 64.997C112.316 64.927 112.09 64.8547 111.857 64.78C111.628 64.7053 111.402 64.6213 111.178 64.528C110.958 64.43 110.762 64.3087 110.59 64.164C110.417 64.0193 110.277 63.842 110.17 63.632C110.067 63.4173 110.016 63.1583 110.016 62.855C110.016 62.5843 110.072 62.3253 110.184 62.078C110.296 61.826 110.459 61.6067 110.674 61.42C110.888 61.2287 111.152 61.077 111.465 60.965C111.777 60.853 112.134 60.797 112.536 60.797C113.002 60.797 113.42 60.8717 113.789 61.021C114.162 61.1657 114.484 61.3663 114.755 61.623L114.475 62.078ZM124.4 68H123.847C123.726 68 123.628 67.9813 123.553 67.944C123.478 67.9067 123.429 67.8273 123.406 67.706L123.266 67.048C123.079 67.216 122.897 67.3677 122.72 67.503C122.543 67.6337 122.356 67.7457 122.16 67.839C121.964 67.9277 121.754 67.9953 121.53 68.042C121.311 68.0887 121.066 68.112 120.795 68.112C120.52 68.112 120.261 68.0747 120.018 68C119.78 67.9207 119.572 67.804 119.395 67.65C119.218 67.496 119.075 67.3023 118.968 67.069C118.865 66.831 118.814 66.551 118.814 66.229C118.814 65.949 118.891 65.6807 119.045 65.424C119.199 65.1627 119.446 64.9317 119.787 64.731C120.132 64.5303 120.583 64.367 121.138 64.241C121.693 64.1103 122.372 64.0357 123.175 64.017V63.464C123.175 62.9133 123.056 62.498 122.818 62.218C122.585 61.9333 122.237 61.791 121.775 61.791C121.472 61.791 121.215 61.8307 121.005 61.91C120.8 61.9847 120.62 62.071 120.466 62.169C120.317 62.2623 120.186 62.3487 120.074 62.428C119.967 62.5027 119.859 62.54 119.752 62.54C119.668 62.54 119.593 62.519 119.528 62.477C119.467 62.4303 119.418 62.3743 119.381 62.309L119.157 61.91C119.549 61.532 119.971 61.2497 120.424 61.063C120.877 60.8763 121.378 60.783 121.929 60.783C122.326 60.783 122.678 60.8483 122.986 60.979C123.294 61.1097 123.553 61.2917 123.763 61.525C123.973 61.7583 124.132 62.0407 124.239 62.372C124.346 62.7033 124.4 63.0673 124.4 63.464V68ZM121.166 67.237C121.385 67.237 121.586 67.216 121.768 67.174C121.95 67.1273 122.12 67.0643 122.279 66.985C122.442 66.901 122.596 66.8007 122.741 66.684C122.89 66.5673 123.035 66.4343 123.175 66.285V64.808C122.601 64.8267 122.113 64.8733 121.712 64.948C121.311 65.018 120.984 65.1113 120.732 65.228C120.48 65.3447 120.296 65.4823 120.179 65.641C120.067 65.7997 120.011 65.977 120.011 66.173C120.011 66.3597 120.041 66.5207 120.102 66.656C120.163 66.7913 120.244 66.9033 120.347 66.992C120.45 67.076 120.571 67.139 120.711 67.181C120.851 67.2183 121.003 67.237 121.166 67.237ZM132.021 60.909V70.401H130.775V66.95C130.476 67.2953 130.135 67.573 129.753 67.783C129.375 67.993 128.941 68.098 128.451 68.098C128.045 68.098 127.676 68.021 127.345 67.867C127.013 67.7083 126.731 67.4773 126.498 67.174C126.264 66.8707 126.085 66.4927 125.959 66.04C125.833 65.5873 125.77 65.067 125.77 64.479C125.77 63.9563 125.84 63.471 125.98 63.023C126.12 62.5703 126.32 62.1783 126.582 61.847C126.848 61.5157 127.17 61.2567 127.548 61.07C127.926 60.8787 128.355 60.783 128.836 60.783C129.293 60.783 129.68 60.8647 129.998 61.028C130.32 61.1913 130.607 61.4223 130.859 61.721L130.943 61.168C130.989 60.9953 131.101 60.909 131.279 60.909H132.021ZM128.864 67.09C129.27 67.09 129.624 66.9967 129.928 66.81C130.236 66.6233 130.518 66.3597 130.775 66.019V62.589C130.551 62.2903 130.301 62.078 130.026 61.952C129.75 61.8213 129.447 61.756 129.116 61.756C128.453 61.756 127.944 61.9917 127.59 62.463C127.235 62.9343 127.058 63.6063 127.058 64.479C127.058 64.941 127.097 65.3377 127.177 65.669C127.256 65.9957 127.373 66.2663 127.527 66.481C127.681 66.691 127.87 66.845 128.094 66.943C128.318 67.041 128.574 67.09 128.864 67.09ZM135.186 60.909V65.431C135.186 65.9677 135.31 66.383 135.557 66.677C135.804 66.971 136.178 67.118 136.677 67.118C137.041 67.118 137.384 67.0317 137.706 66.859C138.028 66.6863 138.324 66.446 138.595 66.138V60.909H139.841V68H139.099C138.922 68 138.81 67.9137 138.763 67.741L138.665 66.978C138.357 67.3187 138.012 67.594 137.629 67.804C137.246 68.0093 136.808 68.112 136.313 68.112C135.926 68.112 135.583 68.049 135.284 67.923C134.99 67.7923 134.743 67.6103 134.542 67.377C134.341 67.1437 134.19 66.8613 134.087 66.53C133.989 66.1987 133.94 65.8323 133.94 65.431V60.909H135.186ZM143.273 60.909V68H142.027V60.909H143.273ZM144.729 57.857L143.098 59.663C143.033 59.733 142.968 59.7843 142.902 59.817C142.842 59.845 142.762 59.859 142.664 59.859H141.922L142.958 58.165C143.024 58.0577 143.094 57.9807 143.168 57.934C143.248 57.8827 143.362 57.857 143.511 57.857H144.729ZM149.177 63.597C149.177 64.5957 149.306 65.5663 149.562 66.509C149.819 67.447 150.19 68.343 150.675 69.197C150.703 69.2483 150.722 69.2927 150.731 69.33C150.741 69.3673 150.745 69.4047 150.745 69.442C150.745 69.5073 150.729 69.561 150.696 69.603C150.664 69.645 150.622 69.6823 150.57 69.715L150.017 70.051C149.667 69.5143 149.369 68.9823 149.121 68.455C148.879 67.9277 148.68 67.398 148.526 66.866C148.377 66.334 148.267 65.7997 148.197 65.263C148.127 64.7217 148.092 64.1663 148.092 63.597C148.092 63.0323 148.127 62.4793 148.197 61.938C148.267 61.3967 148.377 60.8623 148.526 60.335C148.68 59.803 148.879 59.2733 149.121 58.746C149.369 58.2187 149.667 57.6843 150.017 57.143L150.57 57.486C150.622 57.5187 150.664 57.556 150.696 57.598C150.729 57.64 150.745 57.6937 150.745 57.759C150.745 57.829 150.722 57.9083 150.675 57.997C150.185 58.8463 149.812 59.7423 149.555 60.685C149.303 61.6277 149.177 62.5983 149.177 63.597ZM152.374 70.401V60.909H153.116C153.293 60.909 153.405 60.9953 153.452 61.168L153.557 62.008C153.86 61.6393 154.205 61.343 154.593 61.119C154.985 60.895 155.435 60.783 155.944 60.783C156.35 60.783 156.718 60.8623 157.05 61.021C157.381 61.175 157.663 61.406 157.897 61.714C158.13 62.0173 158.31 62.3953 158.436 62.848C158.562 63.3007 158.625 63.821 158.625 64.409C158.625 64.9317 158.555 65.4193 158.415 65.872C158.275 66.32 158.074 66.7097 157.813 67.041C157.551 67.3677 157.229 67.6267 156.847 67.818C156.469 68.0047 156.042 68.098 155.566 68.098C155.127 68.098 154.751 68.0257 154.439 67.881C154.131 67.7363 153.858 67.531 153.62 67.265V70.401H152.374ZM155.531 61.791C155.125 61.791 154.768 61.8843 154.46 62.071C154.156 62.2577 153.876 62.5213 153.62 62.862V66.292C153.848 66.6 154.098 66.817 154.369 66.943C154.644 67.069 154.95 67.132 155.286 67.132C155.944 67.132 156.45 66.8963 156.805 66.425C157.159 65.9537 157.337 65.2817 157.337 64.409C157.337 63.947 157.295 63.5503 157.211 63.219C157.131 62.8877 157.015 62.617 156.861 62.407C156.707 62.1923 156.518 62.036 156.294 61.938C156.07 61.84 155.815 61.791 155.531 61.791ZM160.098 68V60.909H160.84C161.018 60.909 161.13 60.9953 161.176 61.168L161.274 61.938C161.582 61.5973 161.925 61.322 162.303 61.112C162.686 60.902 163.127 60.797 163.626 60.797C164.014 60.797 164.354 60.8623 164.648 60.993C164.947 61.119 165.194 61.301 165.39 61.539C165.591 61.7723 165.743 62.0547 165.845 62.386C165.948 62.7173 165.999 63.0837 165.999 63.485V68H164.753V63.485C164.753 62.9483 164.63 62.533 164.382 62.239C164.14 61.9403 163.766 61.791 163.262 61.791C162.894 61.791 162.548 61.8797 162.226 62.057C161.909 62.2343 161.615 62.4747 161.344 62.778V68H160.098ZM170.264 60.79C170.572 60.79 170.859 60.825 171.125 60.895C171.396 60.9603 171.641 61.0583 171.86 61.189H173.785V61.651C173.785 61.805 173.687 61.903 173.491 61.945L172.686 62.057C172.845 62.3603 172.924 62.6987 172.924 63.072C172.924 63.4173 172.857 63.7323 172.721 64.017C172.591 64.297 172.406 64.5373 172.168 64.738C171.935 64.9387 171.655 65.0927 171.328 65.2C171.006 65.3073 170.652 65.361 170.264 65.361C169.933 65.361 169.62 65.3213 169.326 65.242C169.177 65.3353 169.063 65.4357 168.983 65.543C168.909 65.6503 168.871 65.7553 168.871 65.858C168.871 66.026 168.939 66.1543 169.074 66.243C169.21 66.327 169.389 66.3877 169.613 66.425C169.837 66.4623 170.092 66.4857 170.376 66.495C170.661 66.5043 170.95 66.5207 171.244 66.544C171.543 66.5627 171.835 66.5977 172.119 66.649C172.404 66.7003 172.658 66.7843 172.882 66.901C173.106 67.0177 173.286 67.1787 173.421 67.384C173.557 67.5893 173.624 67.8553 173.624 68.182C173.624 68.4853 173.547 68.7793 173.393 69.064C173.244 69.3487 173.027 69.6007 172.742 69.82C172.458 70.044 172.11 70.2213 171.699 70.352C171.289 70.4873 170.824 70.555 170.306 70.555C169.788 70.555 169.333 70.5037 168.941 70.401C168.554 70.2983 168.232 70.1607 167.975 69.988C167.719 69.8153 167.525 69.6147 167.394 69.386C167.268 69.162 167.205 68.9263 167.205 68.679C167.205 68.329 167.315 68.0327 167.534 67.79C167.758 67.5427 168.064 67.3467 168.451 67.202C168.251 67.1087 168.09 66.985 167.968 66.831C167.852 66.6723 167.793 66.4623 167.793 66.201C167.793 66.0983 167.812 65.9933 167.849 65.886C167.887 65.774 167.943 65.6643 168.017 65.557C168.097 65.4497 168.192 65.347 168.304 65.249C168.416 65.151 168.547 65.0647 168.696 64.99C168.346 64.794 168.071 64.535 167.87 64.213C167.674 63.8863 167.576 63.506 167.576 63.072C167.576 62.7267 167.642 62.414 167.772 62.134C167.908 61.8493 168.094 61.609 168.332 61.413C168.57 61.2123 168.853 61.0583 169.179 60.951C169.511 60.8437 169.872 60.79 170.264 60.79ZM172.476 68.385C172.476 68.2077 172.427 68.0653 172.329 67.958C172.231 67.8507 172.098 67.769 171.93 67.713C171.762 67.6523 171.569 67.608 171.349 67.58C171.13 67.552 170.899 67.5333 170.656 67.524C170.414 67.51 170.166 67.496 169.914 67.482C169.662 67.468 169.422 67.4423 169.193 67.405C168.927 67.531 168.71 67.685 168.542 67.867C168.379 68.049 168.297 68.266 168.297 68.518C168.297 68.6767 168.337 68.8237 168.416 68.959C168.5 69.099 168.626 69.218 168.794 69.316C168.962 69.4187 169.172 69.498 169.424 69.554C169.681 69.6147 169.982 69.645 170.327 69.645C170.663 69.645 170.964 69.6147 171.23 69.554C171.496 69.4933 171.72 69.407 171.902 69.295C172.089 69.183 172.231 69.05 172.329 68.896C172.427 68.742 172.476 68.5717 172.476 68.385ZM170.264 64.535C170.516 64.535 170.738 64.5 170.929 64.43C171.125 64.36 171.289 64.262 171.419 64.136C171.55 64.01 171.648 63.8607 171.713 63.688C171.779 63.5107 171.811 63.317 171.811 63.107C171.811 62.673 171.678 62.3277 171.412 62.071C171.151 61.8143 170.768 61.686 170.264 61.686C169.765 61.686 169.382 61.8143 169.116 62.071C168.855 62.3277 168.724 62.673 168.724 63.107C168.724 63.317 168.757 63.5107 168.822 63.688C168.892 63.8607 168.993 64.01 169.123 64.136C169.254 64.262 169.415 64.36 169.606 64.43C169.798 64.5 170.017 64.535 170.264 64.535ZM174.664 67.139C174.664 67.0317 174.683 66.9313 174.72 66.838C174.762 66.74 174.818 66.656 174.888 66.586C174.963 66.5113 175.051 66.453 175.154 66.411C175.257 66.369 175.369 66.348 175.49 66.348C175.63 66.348 175.754 66.3737 175.861 66.425C175.973 66.4763 176.064 66.5487 176.134 66.642C176.209 66.7307 176.265 66.8357 176.302 66.957C176.339 67.0737 176.358 67.202 176.358 67.342C176.358 67.552 176.328 67.7713 176.267 68C176.206 68.224 176.12 68.4457 176.008 68.665C175.896 68.889 175.756 69.106 175.588 69.316C175.425 69.526 175.238 69.7197 175.028 69.897L174.818 69.694C174.757 69.638 174.727 69.5727 174.727 69.498C174.727 69.4373 174.76 69.3743 174.825 69.309C174.872 69.2577 174.93 69.1877 175 69.099C175.075 69.015 175.149 68.917 175.224 68.805C175.299 68.693 175.366 68.5693 175.427 68.434C175.492 68.2987 175.539 68.154 175.567 68H175.476C175.355 68 175.245 67.979 175.147 67.937C175.049 67.895 174.963 67.8367 174.888 67.762C174.818 67.6827 174.762 67.5917 174.72 67.489C174.683 67.3817 174.664 67.265 174.664 67.139ZM180.702 70.401V60.909H181.444C181.621 60.909 181.733 60.9953 181.78 61.168L181.885 62.008C182.188 61.6393 182.533 61.343 182.921 61.119C183.313 60.895 183.763 60.783 184.272 60.783C184.678 60.783 185.046 60.8623 185.378 61.021C185.709 61.175 185.991 61.406 186.225 61.714C186.458 62.0173 186.638 62.3953 186.764 62.848C186.89 63.3007 186.953 63.821 186.953 64.409C186.953 64.9317 186.883 65.4193 186.743 65.872C186.603 66.32 186.402 66.7097 186.141 67.041C185.879 67.3677 185.557 67.6267 185.175 67.818C184.797 68.0047 184.37 68.098 183.894 68.098C183.455 68.098 183.079 68.0257 182.767 67.881C182.459 67.7363 182.186 67.531 181.948 67.265V70.401H180.702ZM183.859 61.791C183.453 61.791 183.096 61.8843 182.788 62.071C182.484 62.2577 182.204 62.5213 181.948 62.862V66.292C182.176 66.6 182.426 66.817 182.697 66.943C182.972 67.069 183.278 67.132 183.614 67.132C184.272 67.132 184.778 66.8963 185.133 66.425C185.487 65.9537 185.665 65.2817 185.665 64.409C185.665 63.947 185.623 63.5503 185.539 63.219C185.459 62.8877 185.343 62.617 185.189 62.407C185.035 62.1923 184.846 62.036 184.622 61.938C184.398 61.84 184.143 61.791 183.859 61.791ZM193.417 68C193.24 68 193.128 67.9137 193.081 67.741L192.969 66.88C192.666 67.2487 192.318 67.545 191.926 67.769C191.539 67.9883 191.093 68.098 190.589 68.098C190.183 68.098 189.815 68.021 189.483 67.867C189.152 67.7083 188.87 67.4773 188.636 67.174C188.403 66.8707 188.223 66.4927 188.097 66.04C187.971 65.5873 187.908 65.067 187.908 64.479C187.908 63.9563 187.978 63.471 188.118 63.023C188.258 62.5703 188.459 62.1783 188.72 61.847C188.986 61.5157 189.308 61.2567 189.686 61.07C190.064 60.8787 190.494 60.783 190.974 60.783C191.408 60.783 191.779 60.8577 192.087 61.007C192.395 61.1517 192.671 61.357 192.913 61.623V57.689H194.159V68H193.417ZM191.002 67.09C191.408 67.09 191.763 66.9967 192.066 66.81C192.374 66.6233 192.657 66.3597 192.913 66.019V62.589C192.685 62.281 192.433 62.0663 192.157 61.945C191.887 61.819 191.586 61.756 191.254 61.756C190.592 61.756 190.083 61.9917 189.728 62.463C189.374 62.9343 189.196 63.6063 189.196 64.479C189.196 64.941 189.236 65.3377 189.315 65.669C189.395 65.9957 189.511 66.2663 189.665 66.481C189.819 66.691 190.008 66.845 190.232 66.943C190.456 67.041 190.713 67.09 191.002 67.09ZM196.527 68V61.973L195.743 61.882C195.645 61.8587 195.563 61.8237 195.498 61.777C195.437 61.7257 195.407 61.6533 195.407 61.56V61.049H196.527V60.363C196.527 59.957 196.583 59.5977 196.695 59.285C196.811 58.9677 196.975 58.7017 197.185 58.487C197.399 58.2677 197.656 58.102 197.955 57.99C198.253 57.878 198.589 57.822 198.963 57.822C199.28 57.822 199.574 57.8687 199.845 57.962L199.817 58.585C199.812 58.6783 199.772 58.7343 199.698 58.753C199.623 58.7717 199.518 58.781 199.383 58.781H199.166C198.951 58.781 198.755 58.809 198.578 58.865C198.405 58.921 198.256 59.012 198.13 59.138C198.004 59.264 197.906 59.4297 197.836 59.635C197.77 59.8403 197.738 60.0947 197.738 60.398V61.049H199.789V61.952H197.78V68H196.527ZM202.027 63.597C202.027 62.5983 201.899 61.6277 201.642 60.685C201.39 59.7423 201.019 58.8463 200.529 57.997C200.483 57.9083 200.459 57.829 200.459 57.759C200.459 57.6937 200.476 57.64 200.508 57.598C200.541 57.556 200.583 57.5187 200.634 57.486L201.187 57.143C201.537 57.6843 201.834 58.2187 202.076 58.746C202.324 59.2733 202.522 59.803 202.671 60.335C202.825 60.8623 202.937 61.3967 203.007 61.938C203.077 62.4793 203.112 63.0323 203.112 63.597C203.112 64.1663 203.077 64.7217 203.007 65.263C202.937 65.7997 202.825 66.334 202.671 66.866C202.522 67.398 202.324 67.9277 202.076 68.455C201.834 68.9823 201.537 69.5143 201.187 70.051L200.634 69.715C200.583 69.6823 200.541 69.645 200.508 69.603C200.476 69.561 200.459 69.5073 200.459 69.442C200.459 69.4047 200.464 69.3673 200.473 69.33C200.483 69.2927 200.501 69.2483 200.529 69.197C201.015 68.343 201.386 67.447 201.642 66.509C201.899 65.5663 202.027 64.5957 202.027 63.597Z" fill="#505050"/>
<path fill-rule="evenodd" clip-rule="evenodd" d="M107 3.9934C101.944 3.9934 97.8462 8.04425 97.8462 13.0412V13.699C98.379 13.7827 98.8988 13.9071 99.4017 14.0689C100.25 14.3419 100.714 15.2429 100.438 16.0814C100.162 16.9199 99.2499 17.3784 98.4016 17.1054C97.72 16.8861 96.9909 16.7668 96.2308 16.7668C92.3648 16.7668 89.2308 19.8646 89.2308 23.6857C89.2308 26.2603 90.6493 28.564 92.7319 29.7548C93.5042 30.1963 93.7681 31.173 93.3214 31.9363C92.8747 32.6996 91.8865 32.9605 91.1142 32.5189C88.0465 30.765 86 27.4152 86 23.6857C86 18.6442 89.7326 14.4643 94.6154 13.6988V13.0412C94.6154 6.28061 100.16 0.800049 107 0.800049C113.84 0.800049 119.385 6.28061 119.385 13.0412V13.6988C124.267 14.4643 128 18.6442 128 23.6857C128 27.4152 125.953 30.765 122.886 32.5189C122.114 32.9605 121.125 32.6996 120.679 31.9363C120.232 31.173 120.496 30.1963 121.268 29.7548C123.351 28.564 124.769 26.2603 124.769 23.6857C124.769 19.8646 121.635 16.7668 117.769 16.7668C116.877 16.7668 116.154 16.0519 116.154 15.1701V13.0412C116.154 8.04425 112.055 3.9934 107 3.9934ZM99.3962 24.6856L105.858 18.2989C106.489 17.6754 107.511 17.6754 108.142 18.2989L114.604 24.6856C115.235 25.3091 115.235 26.3201 114.604 26.9436C113.973 27.5672 112.95 27.5672 112.319 26.9436L108.615 23.2826V38.588C108.615 39.4698 107.892 40.1847 107 40.1847C106.108 40.1847 105.385 39.4698 105.385 38.588V23.2826L101.681 26.9436C101.05 27.5672 100.027 27.5672 99.3962 26.9436C98.7654 26.3201 98.7654 25.3091 99.3962 24.6856Z" fill="#D8D8D8"/>
</svg>
